# xmcd
#
# Track frame offsets: 
#        150
#        16331
#        32537
#        57443
#        74822
#
# Disc length: 1312 seconds
#
# Revision: 0
# Processed by: cddbd v1.5.2PL0 Copyright (c) Steve Scherf et al.
# Submitted via: ExactAudioCopy v0.99pb5
#
DISCID=41051e05
DTITLE=Fred Chapellier - Electric communion CD2
DYEAR=2014
DGENRE=Blues
TTITLE0=Ain't no move in the heart of the city
TTITLE1=Bet on the blues
TTITLE2=Beyond the moon
TTITLE3=Under the influence (2014 studio version)
TTITLE4=Better off lonely
EXTD=
EXTT0=
EXTT1=
EXTT2=
EXTT3=
EXTT4=
PLAYORDER=
